<?xml version="1.0" standalone="no"?>
<!DOCTYPE svg PUBLIC "-//W3C//DTD SVG 1.0//EN" "http://www.w3.org/TR/2001/REC-SVG-20010904/DTD/svg10.dtd">
<svg xmlns="http://www.w3.org/2000/svg" xmlns:xlink="http://www.w3.org/1999/xlink" id="body_1" width="500" height="201">

<g transform="matrix(0.19514565 0 0 0.19514565 0.036875665 -0)">
	<g transform="matrix(0.1 0 -0 -0.1 0 1030)">
        <path d="M20982 10283C 20970 10281 20953 10266 20946 10251C 20938 10236 20912 10206 20888 10185C 20850 10152 20666 9978 20491 9810C 20459 9780 20377 9703 20310 9640C 20195 9534 20131 9473 19915 9268C 19767 9128 19732 9095 19630 9000C 19574 8948 19504 8882 19476 8855C 19409 8788 19062 8461 18980 8386C 18944 8354 18868 8282 18810 8226C 18751 8170 18635 8060 18550 7980C 18466 7900 18380 7819 18361 7800C 18341 7781 18257 7702 18175 7625C 18093 7548 17978 7440 17920 7385C 17862 7330 17768 7241 17712 7187C 17655 7134 17595 7083 17579 7074C 17549 7059 17549 7059 17482 7116C 17445 7147 17406 7182 17395 7194C 17384 7206 17346 7240 17310 7270C 17274 7300 17223 7346 17195 7371C 17168 7397 17125 7435 17100 7455C 17075 7475 17045 7501 17034 7513C 17022 7525 16984 7560 16949 7590C 16914 7620 16861 7668 16830 7696C 16777 7745 16525 7968 16486 8000C 16476 8008 16453 8029 16436 8045C 16381 8096 16230 8233 16130 8320C 16078 8366 16031 8409 16025 8416C 16020 8423 15977 8461 15930 8500C 15883 8540 15836 8581 15825 8591C 15773 8639 15521 8862 15491 8886C 15477 8898 15447 8913 15425 8919C 15397 8927 14968 8930 13949 8930C 12547 8930 12512 8930 12489 8911C 12465 8892 12465 8891 12483 8860C 12494 8843 12521 8811 12543 8790C 12566 8769 12605 8732 12630 8709C 12655 8685 12729 8613 12795 8550C 12861 8487 13012 8341 13131 8225C 13349 8013 13790 7585 14014 7368C 14081 7303 14203 7184 14287 7103C 14529 6867 14812 6596 14852 6561C 14872 6543 14904 6525 14922 6519C 14942 6514 15323 6510 15865 6510C 16397 6510 16781 6506 16789 6501C 16801 6493 16802 6484 16794 6458C 16787 6433 16745 6387 16630 6281C 16454 6118 16378 6046 16124 5804C 16026 5710 15848 5543 15730 5434C 15612 5324 15503 5223 15489 5210C 15448 5170 15291 5023 15186 4925C 15090 4835 15050 4798 14889 4645C 14843 4601 14733 4497 14645 4415C 14557 4333 14476 4257 14464 4245C 14453 4234 14388 4173 14320 4110C 14252 4047 14182 3982 14164 3965C 14147 3949 14077 3883 14009 3820C 13941 3757 13841 3662 13786 3610C 13538 3375 13472 3312 13421 3265C 13391 3238 13350 3199 13330 3180C 13310 3161 13240 3096 13175 3035C 13110 2975 13042 2912 13025 2895C 12946 2820 12622 2515 12366 2275C 12283 2198 12202 2122 12185 2105C 12024 1952 11860 1798 11840 1782C 11803 1752 11773 1693 11789 1677C 11798 1668 12226 1664 13728 1662C 14788 1661 15669 1662 15686 1665C 15745 1675 15799 1727 16275 2221C 16409 2361 16853 2819 16950 2919C 16997 2967 17130 3105 17245 3225C 17637 3632 17595 3593 17630 3585C 17653 3580 17740 3498 17983 3252C 18160 3073 18348 2883 18400 2831C 18453 2778 18657 2571 18854 2370C 19252 1964 20249 955 20694 506C 20853 346 21016 178 21058 133L21058 133L21133 50L23330 50C 25025 50 25529 53 25538 62C 25545 69 25550 86 25550 102C 25550 124 25537 139 25483 180C 25446 208 25391 254 25360 283C 25329 312 25284 351 25261 370C 25238 389 25207 416 25191 430C 25131 483 25049 553 25023 573C 24981 606 24734 815 24660 881C 24624 912 24516 1005 24420 1086C 24324 1167 24191 1281 24125 1338C 24059 1396 23983 1462 23955 1485C 23776 1638 23394 1963 23335 2013C 23297 2045 23252 2084 23235 2099C 23196 2134 23007 2296 22959 2335C 22938 2352 22859 2419 22783 2485C 22707 2552 22605 2639 22555 2680C 22506 2720 22440 2776 22409 2804C 22378 2832 22336 2869 22316 2885C 22295 2902 22269 2924 22257 2936C 22245 2947 22163 3017 22075 3090C 21987 3163 21904 3233 21890 3245C 21876 3258 21838 3292 21805 3322C 21772 3352 21702 3412 21650 3455C 21598 3498 21547 3540 21538 3549C 21529 3558 21504 3579 21483 3596C 21423 3646 21067 3951 21048 3969C 21039 3978 21014 3999 20993 4017C 20972 4034 20860 4129 20744 4228C 20628 4327 20512 4419 20486 4434L20486 4434L20439 4460L19471 4460C 18546 4460 18502 4461 18487 4478C 18477 4488 18470 4502 18470 4509C 18470 4520 18561 4615 18975 5037C 19090 5155 19187 5256 19191 5261C 19194 5266 19293 5369 19411 5488C 19529 5608 19716 5800 19827 5915C 19938 6031 20125 6223 20242 6342C 20452 6556 20896 7013 20955 7075C 20972 7092 21068 7192 21170 7296C 21675 7813 21793 7935 22015 8165C 22147 8302 22359 8520 22486 8649C 22613 8779 22786 8957 22871 9044C 23082 9262 23400 9589 23607 9800C 23984 10185 23990 10192 23990 10230C 23990 10250 23985 10271 23978 10278C 23969 10287 23625 10290 22486 10289C 21671 10288 20995 10285 20982 10283z" stroke="none" fill="#000000" fill-rule="nonzero" />
        <path d="M5260 8371C 5234 8363 5154 8312 5085 8261C 5063 8244 5023 8215 4995 8195C 4948 8162 4867 8103 4790 8045C 4742 8009 4604 7907 4555 7872C 4533 7856 4481 7819 4440 7789C 4399 7759 4336 7713 4300 7687C 4229 7636 4203 7617 4086 7529C 4042 7497 3998 7468 3988 7464C 3978 7461 3970 7455 3970 7450C 3970 7446 3942 7423 3908 7399C 3873 7376 3827 7342 3806 7323C 3784 7305 3762 7290 3757 7290C 3752 7290 3733 7278 3715 7263C 3697 7247 3647 7210 3605 7180C 3563 7150 3511 7112 3490 7095C 3468 7079 3427 7048 3398 7027C 3369 7006 3291 6949 3225 6900C 3159 6851 3092 6802 3075 6790C 3047 6771 3002 6739 2779 6575C 2734 6542 2691 6513 2685 6510C 2678 6507 2658 6492 2639 6477C 2575 6425 2493 6362 2454 6336C 2410 6306 2386 6288 2279 6208C 2237 6176 2199 6150 2195 6150C 2191 6150 2173 6138 2154 6123C 2120 6094 2097 6077 1965 5980C 1921 5948 1874 5913 1860 5903C 1846 5892 1806 5864 1770 5840C 1734 5815 1689 5782 1669 5765C 1649 5749 1598 5710 1555 5680C 1513 5650 1464 5614 1447 5600C 1429 5586 1397 5562 1375 5547C 1353 5532 1317 5506 1295 5489C 1246 5452 1206 5424 1149 5385C 1111 5359 971 5256 850 5165C 704 5055 655 5020 649 5020C 645 5020 624 5005 602 4988C 579 4970 527 4930 485 4900C 443 4870 388 4828 364 4808C 339 4787 315 4770 311 4770C 300 4770 174 4671 125 4623C 103 4601 69 4559 50 4529L50 4529L15 4475L12 3824C 11 3419 13 3163 19 3147C 26 3129 41 3118 67 3111C 93 3103 782 3100 2266 3100C 4264 3100 4429 3099 4441 3083C 4452 3070 4456 2961 4458 2489L4458 2489L4460 1911L4491 1886L4522 1860L5129 1860L5737 1860L5748 1885C 5757 1905 5760 2679 5760 5009L5760 5009L5760 8107L5724 8176C 5682 8254 5649 8290 5570 8340C 5517 8374 5513 8375 5400 8377C 5337 8378 5274 8376 5260 8371zM4433 6273C 4437 6271 4449 6251 4460 6230C 4480 6192 4480 6169 4480 5255C 4480 4249 4481 4278 4431 4250C 4405 4237 1899 4236 1852 4249C 1834 4255 1802 4273 1780 4290C 1745 4318 1740 4327 1740 4364C 1740 4400 1746 4411 1778 4441C 1812 4473 1903 4543 2037 4638C 2167 4731 2244 4787 2268 4806C 2283 4817 2330 4851 2373 4881C 2416 4911 2467 4948 2488 4963C 2508 4978 2548 5006 2575 5025C 2603 5044 2643 5073 2665 5089C 2687 5106 2716 5127 2730 5137C 2744 5147 2782 5175 2815 5200C 2918 5277 3003 5338 3081 5390C 3102 5404 3145 5435 3178 5460C 3210 5485 3272 5530 3315 5560C 3357 5590 3429 5642 3474 5675C 3518 5708 3566 5743 3580 5752C 3594 5762 3644 5798 3692 5832C 3740 5867 3811 5918 3850 5945C 3889 5973 3947 6015 3978 6040C 4034 6085 4090 6125 4154 6165C 4171 6176 4211 6204 4243 6228C 4274 6251 4310 6275 4323 6280C 4343 6288 4414 6284 4433 6273z" stroke="none" fill="#000000" fill-rule="nonzero" />
        <path d="M7119 8202C 7015 8175 6936 8102 6883 7986L6883 7986L6850 7912L6852 5569L6855 3225L6888 3165C 6941 3069 7003 3010 7094 2971L7094 2971L7155 2945L8625 2945C 9952 2945 10106 2947 10210 2962C 10273 2971 10354 2982 10389 2986C 10425 2989 10478 3001 10508 3011C 10538 3021 10598 3034 10642 3040C 10686 3045 10746 3060 10774 3074C 10802 3087 10843 3101 10865 3105C 10903 3112 11083 3182 11104 3199C 11110 3204 11132 3213 11154 3220C 11175 3227 11208 3243 11228 3256C 11247 3269 11268 3280 11275 3280C 11295 3280 11527 3434 11654 3532C 11736 3596 12038 3896 12096 3972C 12138 4027 12185 4095 12254 4204C 12308 4289 12420 4508 12420 4529C 12420 4538 12429 4564 12441 4585C 12466 4633 12524 4805 12540 4875C 12546 4903 12559 4945 12569 4970C 12580 4997 12592 5066 12599 5140C 12605 5209 12617 5301 12625 5345C 12644 5451 12644 5715 12626 5814C 12618 5855 12606 5945 12600 6012C 12594 6085 12580 6168 12565 6215C 12487 6472 12464 6539 12443 6579C 12430 6603 12420 6631 12420 6640C 12420 6656 12361 6777 12298 6890C 12284 6915 12258 6961 12241 6993C 12223 7024 12205 7050 12201 7050C 12197 7050 12184 7067 12172 7088C 12132 7159 11995 7322 11865 7454C 11756 7565 11626 7671 11460 7785C 11361 7852 11103 7984 11010 8015C 10980 8025 10939 8041 10920 8050C 10901 8060 10854 8075 10815 8083C 10777 8092 10726 8106 10703 8114C 10591 8153 10356 8191 10105 8210C 10018 8216 9444 8220 8575 8219C 7295 8219 7180 8217 7119 8202zM10145 7023C 10294 6994 10467 6947 10519 6920C 10543 6908 10581 6892 10604 6884C 10627 6876 10661 6859 10680 6846C 10699 6833 10742 6806 10775 6785C 10884 6715 11053 6563 11110 6484C 11201 6357 11286 6213 11299 6163C 11305 6140 11315 6118 11319 6115C 11333 6107 11387 5933 11401 5850C 11419 5751 11419 5408 11402 5315C 11386 5230 11357 5137 11320 5050C 11305 5014 11289 4974 11285 4962C 11278 4938 11245 4881 11181 4780C 11071 4607 10899 4441 10710 4325C 10680 4307 10641 4283 10624 4272C 10606 4261 10568 4244 10539 4235C 10510 4225 10472 4209 10454 4198C 10437 4188 10389 4173 10349 4165C 10308 4157 10253 4144 10227 4136C 10127 4104 9938 4099 9088 4102C 8257 4105 8251 4105 8223 4126C 8208 4137 8185 4162 8173 4180L8173 4180L8150 4213L8150 5562C 8150 6682 8152 6916 8164 6943C 8179 6981 8243 7036 8280 7043C 8294 7046 8694 7047 9170 7046C 10001 7044 10039 7043 10145 7023z" stroke="none" fill="#000000" fill-rule="nonzero" />
	</g>
</g>
</svg>