<?xml version="1.0" encoding="UTF-8" standalone="no"?>
<!-- Created with Inkscape (http://www.inkscape.org/) -->

<svg
   xmlns:dc="http://purl.org/dc/elements/1.1/"
   xmlns:cc="http://creativecommons.org/ns#"
   xmlns:rdf="http://www.w3.org/1999/02/22-rdf-syntax-ns#"
   xmlns:svg="http://www.w3.org/2000/svg"
   xmlns="http://www.w3.org/2000/svg"
   xmlns:sodipodi="http://sodipodi.sourceforge.net/DTD/sodipodi-0.dtd"
   xmlns:inkscape="http://www.inkscape.org/namespaces/inkscape"
   width="212.88135mm"
   height="93.954597mm"
   viewBox="0 0 212.88134 93.954597"
   version="1.1"
   id="svg914"
   inkscape:version="0.92.4 (5da689c313, 2019-01-14)"
   sodipodi:docname="CGV logo.svg">
  <defs
     id="defs908" />
  <sodipodi:namedview
     id="base"
     pagecolor="#ffffff"
     bordercolor="#666666"
     borderopacity="1.0"
     inkscape:pageopacity="0.0"
     inkscape:pageshadow="2"
     inkscape:zoom="1"
     inkscape:cx="597.56797"
     inkscape:cy="-5.1039809"
     inkscape:document-units="mm"
     inkscape:current-layer="layer1"
     showgrid="false"
     fit-margin-top="0"
     fit-margin-left="0"
     fit-margin-right="0"
     fit-margin-bottom="0"
     inkscape:window-width="1920"
     inkscape:window-height="1001"
     inkscape:window-x="-9"
     inkscape:window-y="-9"
     inkscape:window-maximized="1" />
  <metadata
     id="metadata911">
    <rdf:RDF>
      <cc:Work
         rdf:about="">
        <dc:format>image/svg+xml</dc:format>
        <dc:type
           rdf:resource="http://purl.org/dc/dcmitype/StillImage" />
        <dc:title></dc:title>
      </cc:Work>
    </rdf:RDF>
  </metadata>
  <g
     inkscape:label="Layer 1"
     inkscape:groupmode="layer"
     id="layer1"
     transform="translate(352.45463,36.48325)">
    <g
       transform="matrix(0.0254,0,0,0.0254,-369.34563,-139.48025)"
       style="clip-rule:evenodd;fill-rule:evenodd;image-rendering:optimizeQuality;shape-rendering:geometricPrecision;text-rendering:geometricPrecision"
       id="g37">
      <path
         class="fil1"
         d="m 665,6250 c 0,155 6,256 43,404 23,92 56,177 94,262 27,60 61,115 94,171 49,83 114,151 175,223 20,24 47,43 68,65 15,16 30,27 47,41 9,8 13,12 23,20 l 77,57 c 87,64 138,85 226,130 38,19 83,37 125,51 140,49 290,76 442,80 h 83 c 136,-4 271,-26 397,-69 l 142,-54 c 120,-52 264,-140 359,-229 34,-32 69,-61 101,-95 16,-17 30,-37 48,-53 12,22 116,118 137,134 102,83 221,165 344,215 l 135,51 c 25,8 47,14 73,22 l 112,25 c 16,2 30,5 43,6 316,47 640,-24 913,-186 17,-10 29,-19 46,-29 31,-18 59,-41 88,-62 15,-11 28,-21 41,-34 8,-7 12,-9 20,-16 l 61,-56 c 3,-3 1,-1 5,-5 0,0 1,-1 2,-2 l 18,-18 c 14,-16 33,-31 46,-48 32,-43 59,-71 100,-126 11,-15 20,-29 30,-45 20,-30 40,-61 56,-94 9,-19 17,-31 26,-49 31,-61 97,-211 102,-273 19,22 45,81 59,107 20,36 36,74 58,109 l 231,435 c 7,15 13,22 20,36 27,54 65,133 99,178 33,44 69,76 117,105 135,81 316,67 438,-29 12,-9 21,-17 31,-27 20,-20 40,-41 55,-66 35,-57 75,-145 104,-193 8,-14 13,-24 20,-38 l 103,-194 c 8,-16 15,-26 22,-40 45,-91 97,-181 144,-271 l 64,-119 c 56,-103 108,-208 166,-311 l 124,-235 c 8,-14 13,-23 21,-38 8,-16 14,-24 22,-40 l 42,-79 c 8,-13 13,-25 20,-39 l 228,-428 c 71,-129 65,-279 -9,-404 -8,-14 -14,-20 -23,-33 l -32,-36 c -5,-5 -2,-2 -7,-6 l -45,-37 c -34,-26 -71,-41 -112,-54 -56,-19 -129,-21 -191,-9 -89,18 -150,59 -210,117 -16,16 -37,44 -48,63 l -56,107 c -6,12 -13,23 -19,36 -12,24 -24,49 -37,74 l -445,868 c -6,12 -13,24 -19,36 l -36,71 c -4,7 -5,10 -9,17 -3,6 -2,4 -4,9 -3,5 -2,5 -5,11 -35,62 -68,122 -85,192 l -9,30 c 0,1 -1,4 -2,5 -3,7 -1,3 -3,6 -9,-40 -20,-84 -39,-121 -6,-12 -12,-24 -19,-37 L 5684,5132 c -4,-7 -5,-9 -9,-17 -54,-108 -174,-200 -306,-214 -14,-1 -41,-5 -52,-4 -147,12 -270,78 -339,207 -51,95 -59,198 -30,302 19,69 83,169 118,238 7,14 13,24 21,38 l 145,273 c -241,0 -481,0 -722,0 -108,0 -206,8 -280,82 -33,33 -57,59 -78,102 -88,175 -10,400 174,470 73,28 142,22 239,22 88,0 176,0 265,0 -12,22 -30,46 -46,65 -66,76 -88,100 -178,158 -7,5 -9,6 -16,10 -7,3 -11,6 -19,10 -170,87 -413,101 -583,15 -52,-26 -101,-55 -144,-94 -43,-38 -80,-81 -114,-128 -11,-16 -20,-32 -30,-49 -93,-162 -114,-376 -54,-554 10,-29 19,-55 31,-80 l 63,-107 c 30,-44 68,-82 108,-117 51,-46 111,-80 175,-106 139,-56 169,-18 300,-150 19,-19 33,-44 47,-67 58,-95 65,-245 17,-345 -20,-42 -45,-80 -77,-113 l -12,-11 c -27,-24 -54,-47 -87,-63 -163,-82 -362,-17 -517,49 l -135,68 c -88,53 -155,99 -234,168 -33,28 -77,67 -102,100 l -28,31 c -53,63 -102,127 -145,198 -21,35 -38,65 -57,103 -97,193 -156,402 -156,654 0,71 5,139 14,205 1,7 6,32 6,40 -1,18 -29,52 -40,68 l -142,168 -60,51 c -8,6 -15,12 -24,19 -10,7 -17,11 -27,19 -99,72 -268,136 -397,136 -39,0 -82,3 -122,-2 -16,-2 -25,-3 -41,-5 -44,-7 -100,-23 -138,-39 -160,-66 -289,-186 -364,-341 -103,-215 -85,-462 36,-665 56,-94 138,-172 232,-229 l 89,-45 99,-32 c 34,-10 73,-14 111,-19 102,-15 178,-7 263,-67 6,-4 12,-9 19,-14 81,-66 148,-167 148,-283 0,-87 -11,-150 -52,-219 -6,-10 -10,-18 -18,-28 -43,-57 -87,-95 -154,-127 -146,-71 -389,-20 -526,12 l -102,31 c -24,8 -42,15 -64,24 -22,9 -42,18 -64,27 -80,33 -156,82 -227,129 -71,47 -135,104 -195,164 -31,31 -58,57 -85,91 -67,83 -131,169 -179,265 -6,12 -11,19 -16,30 -6,13 -9,20 -14,31 l -52,125 c -52,138 -85,301 -85,454 z"
         id="path9"
         inkscape:connector-curvature="0"
         style="fill:#ee2e24" />
      <path
         class="fil1"
         d="m 8553,4947 1,-7 c -17,-4 -38,-13 -54,-19 -69,-26 -44,-26 -111,-1 -17,6 -41,13 -55,20 v -95 l -147,-82 -10,-1 c -37,17 -157,56 -181,69 -118,66 -39,257 102,200 l 183,-68 c 12,-4 36,-16 49,-17 0,43 -5,161 2,194 17,81 114,118 182,64 18,-14 33,-37 39,-63 5,-23 9,-173 0,-196 z"
         id="path25"
         inkscape:connector-curvature="0"
         style="fill:#ee2e24" />
      <path
         class="fil2"
         d="m 8443,4444 v 13 l 58,163 c 15,-1 106,-55 126,-67 10,-6 10,-13 14,-3 7,-11 -2,-5 9,-15 l 107,-305 c 9,-26 15,-34 14,-67 0,-59 -44,-100 -94,-108 h -35 c -22,4 -43,14 -61,32 -18,18 -20,25 -30,51 z"
         id="path27"
         inkscape:connector-curvature="0"
         style="fill:#f26f21" />
      <path
         class="fil1"
         d="m 8237,4537 6,9 105,58 c 13,8 24,12 35,20 l 59,-167 v -13 l -86,-245 c -18,-51 -32,-127 -103,-142 -3,-1 -7,-1 -10,-2 h -34 c -50,7 -92,45 -96,106 -2,32 24,96 36,127 16,42 28,83 43,123 8,20 14,40 21,60 4,12 6,20 11,32 5,13 8,19 11,33 z"
         id="path29"
         inkscape:connector-curvature="0"
         style="fill:#ee2e24" />
      <path
         class="fil1"
         d="m 8651,4535 c -11,10 -2,4 -9,15 l -59,168 118,44 h 10 l 244,-140 c 43,-24 106,-56 88,-141 -14,-64 -79,-99 -140,-84 -22,6 -167,92 -200,110 -18,10 -33,20 -51,28 z"
         id="path31"
         inkscape:connector-curvature="0"
         style="fill:#ee2e24" />
      <path
         class="fil2"
         d="m 8178,4763 10,1 c 12,-10 100,-37 118,-46 -6,-13 -10,-29 -15,-43 l -31,-87 c -4,-13 -10,-31 -16,-43 l -6,-9 -148,-85 c -13,-7 -86,-50 -100,-54 -18,-5 -53,-5 -71,2 -34,12 -68,46 -73,84 -14,102 63,123 136,167 l 148,84 c 11,6 42,22 49,28 z"
         id="path33"
         inkscape:connector-curvature="0"
         style="fill:#f26f21" />
      <path
         class="fil2"
         d="m 8554,4940 -1,7 c 15,1 78,26 95,33 15,6 29,11 45,17 l 92,35 c 52,21 103,11 137,-32 45,-57 24,-138 -32,-168 -14,-7 -29,-12 -45,-18 l -136,-52 h -10 l -147,83 1,95 z"
         id="path35"
         inkscape:connector-curvature="0"
         style="fill:#f26f21" />
    </g>
  </g>
</svg>
