<?xml version="1.0" encoding="utf-8"?>
<!-- Generator: Adobe Illustrator 21.0.0, SVG Export Plug-In . SVG Version: 6.00 Build 0)  -->
<svg version="1.1" id="Layer_1" xmlns="http://www.w3.org/2000/svg" xmlns:xlink="http://www.w3.org/1999/xlink" x="0px" y="0px"
	 viewBox="0 0 20.3 20.3" style="enable-background:new 0 0 20.3 20.3;" xml:space="preserve">
<style type="text/css">
	.st0{clip-path:url(#SVGID_2_);fill:#ED1D24;}
	.st1{clip-path:url(#SVGID_2_);fill:#FFFFFF;}
</style>
<g>
	<defs>
		<rect id="SVGID_1_" x="0.1" y="0.1" width="20.1" height="20.1"/>
	</defs>
	<clipPath id="SVGID_2_">
		<use xlink:href="#SVGID_1_"  style="overflow:visible;"/>
	</clipPath>
	<path class="st0" d="M14.3,18.5c-2.3,2.3-6,2.3-8.3,0l-4.2-4.2c-2.3-2.3-2.3-6,0-8.3L6,1.8c2.3-2.3,6-2.3,8.3,0L18.5,6
		c2.3,2.3,2.3,6,0,8.3L14.3,18.5z"/>
	<path class="st1" d="M7.7,16.3c-0.3,0-0.6-0.3-0.6-0.6c0-0.2,0.1-0.3,0.2-0.4c0.1-0.1,0.3-0.2,0.4-0.2c0.3,0,0.6,0.3,0.6,0.6
		C8.3,16,8,16.3,7.7,16.3C7.7,16.3,7.7,16.3,7.7,16.3"/>
	<path class="st1" d="M9.9,4.9C9.6,4.9,9.3,5,9.1,5.2C8.6,5.7,8.4,6.6,8.4,7.9c0,1.6,0.4,4.7,1.7,6.4c0.2,0.3,0.4,0.5,0.7,0.6
		c0.2,0.1,0.5,0.3,0.9,0.3c0.1,0,0.2,0,0.3,0c0.7-0.2,1.6-1,2.3-2c0.1-0.2,0.3-0.3,0.5-0.3c0.1,0,0.2,0,0.3,0.1
		c0.1,0.1,0.2,0.2,0.2,0.3c0,0.1,0,0.3-0.1,0.4c-0.9,1.4-2,2.3-3,2.5c0,0,0,0,0,0c-0.2,0-0.4,0.1-0.6,0.1c-0.7,0-1.1-0.3-1.5-0.5
		c-0.3-0.2-0.6-0.5-0.9-0.9c-1.8-2.3-1.9-6.6-1.9-7c0-1.1,0.1-2.7,1-3.6c0.4-0.4,1-0.6,1.6-0.6l0.1,0c0.6,0,1.2,0.2,1.6,0.6
		c0.9,0.9,1.1,2.4,1,3.6c0,1.2-0.2,3.5-1.5,5.5c-0.1,0.2-0.3,0.3-0.5,0.3c-0.1,0-0.2,0-0.3-0.1c-0.3-0.2-0.3-0.5-0.2-0.8
		c0.9-1.4,1.3-3,1.3-5c0-1.3-0.2-2.3-0.7-2.7C10.6,5,10.4,4.9,9.9,4.9L9.9,4.9z"/>
</g>
</svg>
