<?xml version="1.0" encoding="utf-8"?>
<!-- Generator: Adobe Illustrator 25.4.0, SVG Export Plug-In . SVG Version: 6.00 Build 0)  -->
<svg version="1.1" id="레이어_1" xmlns="http://www.w3.org/2000/svg" xmlns:xlink="http://www.w3.org/1999/xlink" x="0px"
	 y="0px" viewBox="0 0 283.5 95.2" style="enable-background:new 0 0 283.5 95.2;" xml:space="preserve">
<style type="text/css">
	.st0{fill:#3C2A78;}
</style>
<g>
	<g>
		<path class="st0" d="M108.5,90.7h-7v-4.8h6.4c0.2,0,0.3-0.1,0.3-0.3v-3.8c0-0.2-0.1-0.3-0.3-0.3h-6.4v-4.4h6.8
			c0.2,0,0.3-0.1,0.3-0.3V73c0-0.2-0.1-0.3-0.3-0.3H96.9c-0.2,0-0.3,0.1-0.3,0.3v21.9c0,0.2,0.1,0.3,0.3,0.3h11.6
			c0.2,0,0.3-0.1,0.3-0.3V91C108.8,90.9,108.7,90.7,108.5,90.7z"/>
		<path class="st0" d="M206.3,90.7h-7v-4.8h6.4c0.2,0,0.3-0.1,0.3-0.3v-3.8c0-0.2-0.1-0.3-0.3-0.3h-6.4v-4.4h6.8
			c0.2,0,0.3-0.1,0.3-0.3V73c0-0.2-0.1-0.3-0.3-0.3h-11.4c-0.2,0-0.3,0.1-0.3,0.3v21.9c0,0.2,0.1,0.3,0.3,0.3h11.6
			c0.2,0,0.3-0.1,0.3-0.3V91C206.6,90.9,206.4,90.7,206.3,90.7z"/>
		<path class="st0" d="M161.3,90.7h-7v-4.8h6.4c0.2,0,0.3-0.1,0.3-0.3v-3.8c0-0.2-0.1-0.3-0.3-0.3h-6.4v-4.4h6.8
			c0.2,0,0.3-0.1,0.3-0.3V73c0-0.2-0.1-0.3-0.3-0.3h-11.4c-0.2,0-0.3,0.1-0.3,0.3v21.9c0,0.2,0.1,0.3,0.3,0.3h11.6
			c0.2,0,0.3-0.1,0.3-0.3V91C161.6,90.9,161.5,90.7,161.3,90.7z"/>
		<path class="st0" d="M94.3,72.7H82.9c-0.2,0-0.3,0.1-0.3,0.3v21.9c0,0.2,0.1,0.3,0.3,0.3h4.3c0.2,0,0.3-0.1,0.3-0.3v-9h6.4
			c0.2,0,0.3-0.1,0.3-0.3v-3.8c0-0.2-0.1-0.3-0.3-0.3h-6.4v-4.4h6.8c0.2,0,0.3-0.1,0.3-0.3V73C94.6,72.8,94.5,72.7,94.3,72.7z"/>
		<path class="st0" d="M174.4,72.9c0-0.1-0.2-0.2-0.3-0.2H168c-0.1,0-0.3,0.1-0.3,0.2l-4.1,15.5c0,0,0,0.1,0,0.1v6.4
			c0,0.2,0.1,0.3,0.3,0.3h4.3c0.2,0,0.3-0.1,0.3-0.3v-4.2h5v4.2c0,0.2,0.1,0.3,0.3,0.3h4.3c0.2,0,0.3-0.1,0.3-0.3v-6.4
			c0,0,0-0.1,0-0.1L174.4,72.9z M169,86.4l2.1-9.7l2.1,9.7H169z"/>
		<path class="st0" d="M222,86.9l-2.3-2.1l2.3-1.7c0.2-0.1,0.3-0.3,0.3-0.6v-5.4c0-2.5-2-4.5-4.5-4.5h-8.9c-0.2,0-0.3,0.1-0.3,0.3
			v21.9c0,0.2,0.1,0.3,0.3,0.3h4.3c0.2,0,0.3-0.1,0.3-0.3v-7.7h3.6c0.2,0,0.3,0.1,0.3,0.3v7.4c0,0.2,0.1,0.3,0.3,0.3h4.4
			c0.2,0,0.3-0.1,0.3-0.3v-7.4C222.2,87.3,222.1,87.1,222,86.9z M217.2,82.2c0,0.4-0.3,0.7-0.7,0.7h-3.2V77h3.2
			c0.4,0,0.7,0.3,0.7,0.7V82.2z"/>
		<path class="st0" d="M79.6,72.6h-4.3c-0.2,0-0.3,0.1-0.3,0.3v22c0,0.2,0.1,0.3,0.3,0.3h4.3c0.2,0,0.3-0.1,0.3-0.3v-22
			C79.9,72.7,79.8,72.6,79.6,72.6z"/>
		<path class="st0" d="M72.2,95.2c0.2,0,0.3-0.1,0.3-0.3V91c0-0.2-0.1-0.3-0.3-0.3h-6V72.9c0-0.2-0.1-0.3-0.3-0.3h-4.3
			c-0.2,0-0.3,0.1-0.3,0.3v22c0,0.2,0.1,0.3,0.3,0.3H72.2z"/>
		<path class="st0" d="M146.4,72.6h-4.3c-0.2,0-0.3,0.1-0.3,0.3v8.7h-4.9v-8.7c0-0.2-0.1-0.3-0.3-0.3h-4.3c-0.2,0-0.3,0.1-0.3,0.3
			v22c0,0.2,0.1,0.3,0.3,0.3h4.3c0.2,0,0.3-0.1,0.3-0.3v-8.8h4.9v8.8c0,0.2,0.1,0.3,0.3,0.3h4.3c0.2,0,0.3-0.1,0.3-0.3v-22
			C146.7,72.7,146.6,72.6,146.4,72.6z"/>
		<path class="st0" d="M129.8,72.7h-13.7c-0.2,0-0.3,0.1-0.3,0.3v3.9c0,0.2,0.1,0.3,0.3,0.3h4.4v17.7c0,0.2,0.1,0.3,0.3,0.3h4.3
			c0.2,0,0.3-0.1,0.3-0.3V77.2h4.4c0.2,0,0.3-0.1,0.3-0.3V73C130.1,72.8,130,72.7,129.8,72.7z"/>
		<path class="st0" d="M192.1,72.7h-13.7c-0.2,0-0.3,0.1-0.3,0.3v3.9c0,0.2,0.1,0.3,0.3,0.3h4.4v17.7c0,0.2,0.1,0.3,0.3,0.3h4.3
			c0.2,0,0.3-0.1,0.3-0.3V77.2h4.4c0.2,0,0.3-0.1,0.3-0.3V73C192.4,72.8,192.2,72.7,192.1,72.7z"/>
	</g>
	<g>
		<path class="st0" d="M0,57.7h37.5V0H0V57.7z M6.9,15c0-0.2,0.2-0.4,0.4-0.4h5.8c0.2,0,0.3,0.1,0.4,0.3l5.3,14.5L24,14.9
			c0.1-0.2,0.2-0.3,0.4-0.3h5.8c0.2,0,0.4,0.2,0.4,0.4v27.8c0,0.2-0.2,0.4-0.4,0.4h-5.4c-0.2,0-0.4-0.2-0.4-0.4V26.1l-3.6,10.5
			c-0.1,0.2-0.2,0.3-0.4,0.3H17c-0.2,0-0.3-0.1-0.4-0.3l-3.6-10.5v16.7c0,0.2-0.2,0.4-0.4,0.4H7.3c-0.2,0-0.4-0.2-0.4-0.4V15z"/>
		<polygon class="st0" points="141.7,19.7 139.1,32 144.3,32 		"/>
		<path class="st0" d="M123,57.7h37.5V0H123V57.7z M132.3,34.7C132.3,34.6,132.3,34.6,132.3,34.7l5.2-19.7c0-0.2,0.2-0.3,0.4-0.3
			h7.7c0.2,0,0.3,0.1,0.4,0.3l5.2,19.6c0,0,0,0.1,0,0.1v8.1c0,0.2-0.2,0.4-0.4,0.4h-5.5c-0.2,0-0.4-0.2-0.4-0.4v-5.3h-6.3v5.3
			c0,0.2-0.2,0.4-0.4,0.4h-5.5c-0.2,0-0.4-0.2-0.4-0.4V34.7z"/>
		<path class="st0" d="M184.9,25.1V21c0-0.5-0.4-0.9-0.9-0.9h-4V26h4C184.5,26,184.9,25.6,184.9,25.1z"/>
		<path class="st0" d="M185.4,36.8v-4.4c0-0.5-0.4-0.9-0.9-0.9H180v6.2h4.6C185.1,37.7,185.4,37.3,185.4,36.8z"/>
		<path class="st0" d="M164,57.7h37.5V0H164V57.7z M173.8,15c0-0.2,0.2-0.4,0.4-0.4h11.3c3.1,0,5.6,2.5,5.6,5.6v5.3
			c0,0.3-0.1,0.5-0.3,0.7l-2.9,2.2l3.5,2.8c0.2,0.2,0.3,0.4,0.3,0.7v5.6c0,3.1-2.5,5.6-5.6,5.6h-11.9c-0.2,0-0.4-0.2-0.4-0.4V15z"/>
		<path class="st0" d="M221.1,37.9h5.1c0.2,0,0.4-0.2,0.4-0.4V20.3c0-0.2-0.2-0.4-0.4-0.4h-5.1c-0.2,0-0.4,0.2-0.4,0.4v17.2
			C220.7,37.7,220.9,37.9,221.1,37.9z"/>
		<path class="st0" d="M205,57.7h37.5V0H205V57.7z M214.5,37.8V20c0-3.1,2.5-5.7,5.7-5.7h6.9h0c3.1,0,5.7,2.5,5.7,5.7v0v17.9
			c0,3.1-2.5,5.7-5.7,5.7h-6.9h0C217.1,43.5,214.5,41,214.5,37.8L214.5,37.8z"/>
		<path class="st0" d="M245.9,0v57.7h37.5V0H245.9z M273.9,42.8c0,0.2-0.2,0.4-0.4,0.4h-5.4c-0.2,0-0.3-0.1-0.4-0.3l-3.1-10.1
			l-3.1,10.1c0,0.2-0.2,0.3-0.4,0.3h-5.4c-0.2,0-0.4-0.2-0.4-0.4v-5.9c0-0.1,0-0.1,0.1-0.2l4.7-7.8l-4.5-8c0-0.1,0-0.1,0-0.2V15
			c0-0.2,0.2-0.4,0.4-0.4h5.5c0.2,0,0.3,0.1,0.4,0.3l2.7,9.7l2.7-9.7c0-0.2,0.2-0.3,0.4-0.3h5.5c0.2,0,0.4,0.2,0.4,0.4v5.7
			c0,0.1,0,0.1,0,0.2l-4.5,8l4.7,7.8c0,0.1,0.1,0.1,0.1,0.2V42.8z"/>
		<path class="st0" d="M41,57.7h37.5V0H41V57.7z M52.3,15c0-0.2,0.2-0.4,0.4-0.4h14.5c0.2,0,0.4,0.2,0.4,0.4v4.9
			c0,0.2-0.2,0.4-0.4,0.4h-8.6v5.6h8.2c0.2,0,0.4,0.2,0.4,0.4V31c0,0.2-0.2,0.4-0.4,0.4h-8.2v6.1h8.9c0.2,0,0.4,0.2,0.4,0.4v4.9
			c0,0.2-0.2,0.4-0.4,0.4H52.7c-0.2,0-0.4-0.2-0.4-0.4V15z"/>
		<path class="st0" d="M82,57.7h37.5V0H82V57.7z M91.6,20c0-3.1,2.5-5.7,5.7-5.7h6.9c3.1,0,5.7,2.5,5.7,5.7v3.6
			c0,0.2-0.2,0.4-0.4,0.4H104c-0.2,0-0.4-0.2-0.4-0.4v-3.3c0-0.2-0.2-0.4-0.4-0.4h-5.1c-0.2,0-0.4,0.2-0.4,0.4v17.2
			c0,0.2,0.2,0.4,0.4,0.4h5.1c0.2,0,0.4-0.2,0.4-0.4v-4.6h-2.7c-0.2,0-0.4-0.2-0.4-0.4v-4.7c0-0.2,0.2-0.4,0.4-0.4h8.5
			c0.2,0,0.4,0.2,0.4,0.4v15c0,0.2-0.2,0.4-0.4,0.4h-4.9c-0.2,0-0.4-0.1-0.4-0.3l-0.2-2.1l-2.2,2.7c-0.1,0.1-0.2,0.1-0.3,0.1h-4.1
			c-3.1,0-5.7-2.5-5.7-5.7V20z"/>
	</g>
	<g>
		<polygon class="st0" points="224.1,73.5 225.5,73.5 225.5,77.3 226.4,77.3 226.4,73.5 227.9,73.5 227.9,72.7 224.1,72.7 		"/>
		<polygon class="st0" points="231.9,72.7 230.9,75.8 229.9,72.7 228.4,72.7 228.4,77.3 229.3,77.3 229.3,73.8 230.4,77.3 
			231.4,77.3 232.5,73.8 232.5,77.3 233.4,77.3 233.4,72.7 		"/>
	</g>
</g>
</svg>
